<mxfile host="app.diagrams.net" modified="2023-07-10T02:14:12.749Z" agent="Mozilla/5.0 (Windows NT 10.0; Win64; x64) AppleWebKit/537.36 (KHTML, like Gecko) Chrome/114.0.0.0 Safari/537.36" etag="RFW02A4mC8QIlxpL-8UK" version="21.6.1" type="github">
  <diagram name="第 1 页" id="QaV_Z0Ht7EAKEst0P-oF">
    <mxGraphModel dx="955" dy="521" grid="1" gridSize="10" guides="1" tooltips="1" connect="1" arrows="1" fold="1" page="1" pageScale="1" pageWidth="2000000" pageHeight="2000000" math="0" shadow="0">
      <root>
        <mxCell id="0" />
        <mxCell id="1" parent="0" />
        <mxCell id="SeDEiHkmYTppYiZ_hBF1-3" value="" style="edgeStyle=orthogonalEdgeStyle;rounded=0;orthogonalLoop=1;jettySize=auto;html=1;" edge="1" parent="1" source="SeDEiHkmYTppYiZ_hBF1-1" target="SeDEiHkmYTppYiZ_hBF1-2">
          <mxGeometry relative="1" as="geometry" />
        </mxCell>
        <mxCell id="SeDEiHkmYTppYiZ_hBF1-4" value="搜索框输入" style="edgeLabel;html=1;align=center;verticalAlign=middle;resizable=0;points=[];" vertex="1" connectable="0" parent="SeDEiHkmYTppYiZ_hBF1-3">
          <mxGeometry x="-0.752" y="-4" relative="1" as="geometry">
            <mxPoint as="offset" />
          </mxGeometry>
        </mxCell>
        <mxCell id="SeDEiHkmYTppYiZ_hBF1-1" value="用户" style="ellipse;whiteSpace=wrap;html=1;" vertex="1" parent="1">
          <mxGeometry x="1140" y="20" width="90" height="50" as="geometry" />
        </mxCell>
        <mxCell id="SeDEiHkmYTppYiZ_hBF1-6" value="" style="edgeStyle=orthogonalEdgeStyle;rounded=0;orthogonalLoop=1;jettySize=auto;html=1;" edge="1" parent="1" source="SeDEiHkmYTppYiZ_hBF1-2" target="SeDEiHkmYTppYiZ_hBF1-5">
          <mxGeometry relative="1" as="geometry" />
        </mxCell>
        <mxCell id="SeDEiHkmYTppYiZ_hBF1-7" value="自动补全&lt;br&gt;拼写纠错&lt;br&gt;全文检索&lt;br&gt;结构化检索" style="edgeLabel;html=1;align=center;verticalAlign=middle;resizable=0;points=[];" vertex="1" connectable="0" parent="SeDEiHkmYTppYiZ_hBF1-6">
          <mxGeometry x="-0.0654" y="-3" relative="1" as="geometry">
            <mxPoint as="offset" />
          </mxGeometry>
        </mxCell>
        <mxCell id="SeDEiHkmYTppYiZ_hBF1-2" value="电商APP" style="whiteSpace=wrap;html=1;" vertex="1" parent="1">
          <mxGeometry x="1125" y="100" width="120" height="60" as="geometry" />
        </mxCell>
        <mxCell id="SeDEiHkmYTppYiZ_hBF1-9" value="" style="edgeStyle=orthogonalEdgeStyle;rounded=0;orthogonalLoop=1;jettySize=auto;html=1;" edge="1" parent="1" source="SeDEiHkmYTppYiZ_hBF1-5" target="SeDEiHkmYTppYiZ_hBF1-8">
          <mxGeometry relative="1" as="geometry" />
        </mxCell>
        <mxCell id="SeDEiHkmYTppYiZ_hBF1-10" value="搜索" style="edgeLabel;html=1;align=center;verticalAlign=middle;resizable=0;points=[];" vertex="1" connectable="0" parent="SeDEiHkmYTppYiZ_hBF1-9">
          <mxGeometry x="-0.2" y="-2" relative="1" as="geometry">
            <mxPoint as="offset" />
          </mxGeometry>
        </mxCell>
        <mxCell id="SeDEiHkmYTppYiZ_hBF1-5" value="商品搜索系统" style="whiteSpace=wrap;html=1;" vertex="1" parent="1">
          <mxGeometry x="930" y="200" width="120" height="60" as="geometry" />
        </mxCell>
        <mxCell id="SeDEiHkmYTppYiZ_hBF1-13" value="" style="edgeStyle=orthogonalEdgeStyle;rounded=0;orthogonalLoop=1;jettySize=auto;html=1;" edge="1" parent="1" source="SeDEiHkmYTppYiZ_hBF1-8" target="SeDEiHkmYTppYiZ_hBF1-12">
          <mxGeometry relative="1" as="geometry" />
        </mxCell>
        <mxCell id="SeDEiHkmYTppYiZ_hBF1-14" value="内嵌" style="edgeLabel;html=1;align=center;verticalAlign=middle;resizable=0;points=[];" vertex="1" connectable="0" parent="SeDEiHkmYTppYiZ_hBF1-13">
          <mxGeometry x="-0.0133" y="1" relative="1" as="geometry">
            <mxPoint as="offset" />
          </mxGeometry>
        </mxCell>
        <mxCell id="SeDEiHkmYTppYiZ_hBF1-8" value="IK分词器" style="whiteSpace=wrap;html=1;" vertex="1" parent="1">
          <mxGeometry x="930" y="300" width="120" height="60" as="geometry" />
        </mxCell>
        <mxCell id="SeDEiHkmYTppYiZ_hBF1-12" value="基础中文词库" style="whiteSpace=wrap;html=1;" vertex="1" parent="1">
          <mxGeometry x="770" y="280" width="120" height="30" as="geometry" />
        </mxCell>
        <mxCell id="SeDEiHkmYTppYiZ_hBF1-16" style="edgeStyle=orthogonalEdgeStyle;rounded=0;orthogonalLoop=1;jettySize=auto;html=1;exitX=0;exitY=0.5;exitDx=0;exitDy=0;entryX=1;entryY=0.5;entryDx=0;entryDy=0;" edge="1" parent="1" source="SeDEiHkmYTppYiZ_hBF1-15" target="SeDEiHkmYTppYiZ_hBF1-8">
          <mxGeometry relative="1" as="geometry" />
        </mxCell>
        <mxCell id="SeDEiHkmYTppYiZ_hBF1-17" value="热刷新词库" style="edgeLabel;html=1;align=center;verticalAlign=middle;resizable=0;points=[];" vertex="1" connectable="0" parent="SeDEiHkmYTppYiZ_hBF1-16">
          <mxGeometry x="-0.2267" y="-1" relative="1" as="geometry">
            <mxPoint as="offset" />
          </mxGeometry>
        </mxCell>
        <mxCell id="SeDEiHkmYTppYiZ_hBF1-15" value="mysql 词库&lt;br&gt;数据库" style="rounded=0;whiteSpace=wrap;html=1;" vertex="1" parent="1">
          <mxGeometry x="1140" y="240" width="120" height="60" as="geometry" />
        </mxCell>
        <mxCell id="SeDEiHkmYTppYiZ_hBF1-20" style="edgeStyle=orthogonalEdgeStyle;rounded=0;orthogonalLoop=1;jettySize=auto;html=1;entryX=1;entryY=0.5;entryDx=0;entryDy=0;" edge="1" parent="1" source="SeDEiHkmYTppYiZ_hBF1-18" target="SeDEiHkmYTppYiZ_hBF1-15">
          <mxGeometry relative="1" as="geometry" />
        </mxCell>
        <mxCell id="SeDEiHkmYTppYiZ_hBF1-22" value="录入" style="edgeLabel;html=1;align=center;verticalAlign=middle;resizable=0;points=[];" vertex="1" connectable="0" parent="SeDEiHkmYTppYiZ_hBF1-20">
          <mxGeometry x="-0.0333" y="-3" relative="1" as="geometry">
            <mxPoint as="offset" />
          </mxGeometry>
        </mxCell>
        <mxCell id="SeDEiHkmYTppYiZ_hBF1-18" value="Web页面" style="rounded=0;whiteSpace=wrap;html=1;" vertex="1" parent="1">
          <mxGeometry x="1340" y="210" width="120" height="40" as="geometry" />
        </mxCell>
        <mxCell id="SeDEiHkmYTppYiZ_hBF1-21" style="edgeStyle=orthogonalEdgeStyle;rounded=0;orthogonalLoop=1;jettySize=auto;html=1;entryX=1;entryY=0.75;entryDx=0;entryDy=0;" edge="1" parent="1" source="SeDEiHkmYTppYiZ_hBF1-19" target="SeDEiHkmYTppYiZ_hBF1-15">
          <mxGeometry relative="1" as="geometry" />
        </mxCell>
        <mxCell id="SeDEiHkmYTppYiZ_hBF1-23" value="写入" style="edgeLabel;html=1;align=center;verticalAlign=middle;resizable=0;points=[];" vertex="1" connectable="0" parent="SeDEiHkmYTppYiZ_hBF1-21">
          <mxGeometry x="0.0261" y="-1" relative="1" as="geometry">
            <mxPoint as="offset" />
          </mxGeometry>
        </mxCell>
        <mxCell id="SeDEiHkmYTppYiZ_hBF1-19" value="词汇系统" style="rounded=0;whiteSpace=wrap;html=1;" vertex="1" parent="1">
          <mxGeometry x="1340" y="300" width="120" height="40" as="geometry" />
        </mxCell>
        <mxCell id="SeDEiHkmYTppYiZ_hBF1-26" style="edgeStyle=orthogonalEdgeStyle;rounded=0;orthogonalLoop=1;jettySize=auto;html=1;entryX=1;entryY=0.5;entryDx=0;entryDy=0;" edge="1" parent="1" source="SeDEiHkmYTppYiZ_hBF1-25" target="SeDEiHkmYTppYiZ_hBF1-18">
          <mxGeometry relative="1" as="geometry" />
        </mxCell>
        <mxCell id="SeDEiHkmYTppYiZ_hBF1-27" value="录入品牌" style="edgeLabel;html=1;align=center;verticalAlign=middle;resizable=0;points=[];" vertex="1" connectable="0" parent="SeDEiHkmYTppYiZ_hBF1-26">
          <mxGeometry x="0.1573" relative="1" as="geometry">
            <mxPoint as="offset" />
          </mxGeometry>
        </mxCell>
        <mxCell id="SeDEiHkmYTppYiZ_hBF1-25" value="工作人员" style="ellipse;whiteSpace=wrap;html=1;aspect=fixed;" vertex="1" parent="1">
          <mxGeometry x="1610" y="195" width="70" height="70" as="geometry" />
        </mxCell>
        <mxCell id="SeDEiHkmYTppYiZ_hBF1-29" style="edgeStyle=orthogonalEdgeStyle;rounded=0;orthogonalLoop=1;jettySize=auto;html=1;entryX=1;entryY=0.5;entryDx=0;entryDy=0;" edge="1" parent="1" source="SeDEiHkmYTppYiZ_hBF1-28" target="SeDEiHkmYTppYiZ_hBF1-19">
          <mxGeometry relative="1" as="geometry" />
        </mxCell>
        <mxCell id="SeDEiHkmYTppYiZ_hBF1-30" value="爬虫" style="edgeLabel;html=1;align=center;verticalAlign=middle;resizable=0;points=[];" vertex="1" connectable="0" parent="SeDEiHkmYTppYiZ_hBF1-29">
          <mxGeometry x="-0.02" relative="1" as="geometry">
            <mxPoint as="offset" />
          </mxGeometry>
        </mxCell>
        <mxCell id="SeDEiHkmYTppYiZ_hBF1-28" value="外部网络环境" style="rounded=0;whiteSpace=wrap;html=1;" vertex="1" parent="1">
          <mxGeometry x="1580" y="290" width="120" height="60" as="geometry" />
        </mxCell>
        <mxCell id="SeDEiHkmYTppYiZ_hBF1-32" style="edgeStyle=orthogonalEdgeStyle;rounded=0;orthogonalLoop=1;jettySize=auto;html=1;entryX=0.617;entryY=1.045;entryDx=0;entryDy=0;entryPerimeter=0;" edge="1" parent="1" source="SeDEiHkmYTppYiZ_hBF1-31" target="SeDEiHkmYTppYiZ_hBF1-19">
          <mxGeometry relative="1" as="geometry" />
        </mxCell>
        <mxCell id="SeDEiHkmYTppYiZ_hBF1-33" value="NLP" style="edgeLabel;html=1;align=center;verticalAlign=middle;resizable=0;points=[];" vertex="1" connectable="0" parent="SeDEiHkmYTppYiZ_hBF1-32">
          <mxGeometry x="0.0374" y="-1" relative="1" as="geometry">
            <mxPoint as="offset" />
          </mxGeometry>
        </mxCell>
        <mxCell id="SeDEiHkmYTppYiZ_hBF1-31" value="最新文章词汇合集" style="rounded=0;whiteSpace=wrap;html=1;" vertex="1" parent="1">
          <mxGeometry x="1420" y="420" width="120" height="60" as="geometry" />
        </mxCell>
        <mxCell id="SeDEiHkmYTppYiZ_hBF1-38" style="edgeStyle=orthogonalEdgeStyle;rounded=0;orthogonalLoop=1;jettySize=auto;html=1;exitX=0.75;exitY=0;exitDx=0;exitDy=0;" edge="1" parent="1" source="SeDEiHkmYTppYiZ_hBF1-34">
          <mxGeometry relative="1" as="geometry">
            <mxPoint x="1130" y="340" as="targetPoint" />
            <Array as="points">
              <mxPoint x="1080" y="350" />
              <mxPoint x="1080" y="340" />
            </Array>
          </mxGeometry>
        </mxCell>
        <mxCell id="SeDEiHkmYTppYiZ_hBF1-43" value="" style="edgeStyle=orthogonalEdgeStyle;rounded=0;orthogonalLoop=1;jettySize=auto;html=1;" edge="1" parent="1" source="SeDEiHkmYTppYiZ_hBF1-34" target="SeDEiHkmYTppYiZ_hBF1-41">
          <mxGeometry relative="1" as="geometry" />
        </mxCell>
        <mxCell id="SeDEiHkmYTppYiZ_hBF1-46" value="" style="edgeStyle=orthogonalEdgeStyle;rounded=0;orthogonalLoop=1;jettySize=auto;html=1;" edge="1" parent="1" source="SeDEiHkmYTppYiZ_hBF1-34" target="SeDEiHkmYTppYiZ_hBF1-41">
          <mxGeometry relative="1" as="geometry" />
        </mxCell>
        <mxCell id="SeDEiHkmYTppYiZ_hBF1-48" style="edgeStyle=orthogonalEdgeStyle;rounded=0;orthogonalLoop=1;jettySize=auto;html=1;" edge="1" parent="1" source="SeDEiHkmYTppYiZ_hBF1-34" target="SeDEiHkmYTppYiZ_hBF1-47">
          <mxGeometry relative="1" as="geometry" />
        </mxCell>
        <mxCell id="SeDEiHkmYTppYiZ_hBF1-49" value="监控" style="edgeLabel;html=1;align=center;verticalAlign=middle;resizable=0;points=[];" vertex="1" connectable="0" parent="SeDEiHkmYTppYiZ_hBF1-48">
          <mxGeometry x="-0.024" y="-4" relative="1" as="geometry">
            <mxPoint as="offset" />
          </mxGeometry>
        </mxCell>
        <mxCell id="SeDEiHkmYTppYiZ_hBF1-34" value="Elasticsearch&lt;br&gt;jvm-&amp;gt;8G" style="rounded=0;whiteSpace=wrap;html=1;" vertex="1" parent="1">
          <mxGeometry x="870" y="350" width="240" height="70" as="geometry" />
        </mxCell>
        <mxCell id="SeDEiHkmYTppYiZ_hBF1-40" value="pinyin分词器" style="rounded=0;whiteSpace=wrap;html=1;" vertex="1" parent="1">
          <mxGeometry x="1130" y="320" width="100" height="30" as="geometry" />
        </mxCell>
        <mxCell id="SeDEiHkmYTppYiZ_hBF1-41" value="Linux OS内核参数&lt;br&gt;8G" style="rounded=0;whiteSpace=wrap;html=1;" vertex="1" parent="1">
          <mxGeometry x="820" y="420" width="360" height="60" as="geometry" />
        </mxCell>
        <mxCell id="SeDEiHkmYTppYiZ_hBF1-51" value="" style="rounded=0;orthogonalLoop=1;jettySize=auto;html=1;startArrow=classic;startFill=1;" edge="1" parent="1" source="SeDEiHkmYTppYiZ_hBF1-42">
          <mxGeometry relative="1" as="geometry">
            <mxPoint x="1000" y="590" as="targetPoint" />
          </mxGeometry>
        </mxCell>
        <mxCell id="SeDEiHkmYTppYiZ_hBF1-42" value="阿里云服务器&lt;br&gt;8核16G" style="rounded=0;whiteSpace=wrap;html=1;" vertex="1" parent="1">
          <mxGeometry x="820" y="480" width="360" height="60" as="geometry" />
        </mxCell>
        <mxCell id="SeDEiHkmYTppYiZ_hBF1-47" value="kibana" style="rounded=0;whiteSpace=wrap;html=1;" vertex="1" parent="1">
          <mxGeometry x="1240" y="510" width="240" height="70" as="geometry" />
        </mxCell>
        <mxCell id="SeDEiHkmYTppYiZ_hBF1-52" style="edgeStyle=orthogonalEdgeStyle;rounded=0;orthogonalLoop=1;jettySize=auto;html=1;entryX=0;entryY=0.5;entryDx=0;entryDy=0;" edge="1" parent="1" source="SeDEiHkmYTppYiZ_hBF1-50" target="SeDEiHkmYTppYiZ_hBF1-47">
          <mxGeometry relative="1" as="geometry" />
        </mxCell>
        <mxCell id="SeDEiHkmYTppYiZ_hBF1-53" value="j监控" style="edgeLabel;html=1;align=center;verticalAlign=middle;resizable=0;points=[];" vertex="1" connectable="0" parent="SeDEiHkmYTppYiZ_hBF1-52">
          <mxGeometry x="0.1515" relative="1" as="geometry">
            <mxPoint as="offset" />
          </mxGeometry>
        </mxCell>
        <mxCell id="SeDEiHkmYTppYiZ_hBF1-50" value="Elasticsearch&lt;br&gt;jvm-&amp;gt;8G" style="whiteSpace=wrap;html=1;rounded=0;" vertex="1" parent="1">
          <mxGeometry x="880" y="590" width="270" height="60" as="geometry" />
        </mxCell>
        <mxCell id="SeDEiHkmYTppYiZ_hBF1-54" value="Linux OS内核参数&lt;br&gt;8G" style="rounded=0;whiteSpace=wrap;html=1;" vertex="1" parent="1">
          <mxGeometry x="840" y="650" width="360" height="60" as="geometry" />
        </mxCell>
        <mxCell id="SeDEiHkmYTppYiZ_hBF1-55" value="阿里云服务器&lt;br&gt;8核16G" style="rounded=0;whiteSpace=wrap;html=1;" vertex="1" parent="1">
          <mxGeometry x="840" y="710" width="360" height="60" as="geometry" />
        </mxCell>
        <mxCell id="SeDEiHkmYTppYiZ_hBF1-62" value="" style="edgeStyle=orthogonalEdgeStyle;rounded=0;orthogonalLoop=1;jettySize=auto;html=1;startArrow=classic;startFill=1;" edge="1" parent="1" source="SeDEiHkmYTppYiZ_hBF1-59" target="SeDEiHkmYTppYiZ_hBF1-55">
          <mxGeometry relative="1" as="geometry" />
        </mxCell>
        <mxCell id="SeDEiHkmYTppYiZ_hBF1-63" style="edgeStyle=orthogonalEdgeStyle;rounded=0;orthogonalLoop=1;jettySize=auto;html=1;entryX=0.332;entryY=1.094;entryDx=0;entryDy=0;entryPerimeter=0;" edge="1" parent="1" source="SeDEiHkmYTppYiZ_hBF1-59" target="SeDEiHkmYTppYiZ_hBF1-47">
          <mxGeometry relative="1" as="geometry" />
        </mxCell>
        <mxCell id="SeDEiHkmYTppYiZ_hBF1-64" value="监控" style="edgeLabel;html=1;align=center;verticalAlign=middle;resizable=0;points=[];" vertex="1" connectable="0" parent="SeDEiHkmYTppYiZ_hBF1-63">
          <mxGeometry x="-0.5472" y="-2" relative="1" as="geometry">
            <mxPoint as="offset" />
          </mxGeometry>
        </mxCell>
        <mxCell id="SeDEiHkmYTppYiZ_hBF1-59" value="Elasticsearch&lt;br&gt;jvm-&amp;gt;8G" style="whiteSpace=wrap;html=1;rounded=0;" vertex="1" parent="1">
          <mxGeometry x="885" y="830" width="270" height="60" as="geometry" />
        </mxCell>
        <mxCell id="SeDEiHkmYTppYiZ_hBF1-60" value="Linux OS内核参数&lt;br&gt;8G" style="rounded=0;whiteSpace=wrap;html=1;" vertex="1" parent="1">
          <mxGeometry x="835" y="880" width="360" height="60" as="geometry" />
        </mxCell>
        <mxCell id="SeDEiHkmYTppYiZ_hBF1-61" value="阿里云服务器&lt;br&gt;8核16G" style="rounded=0;whiteSpace=wrap;html=1;" vertex="1" parent="1">
          <mxGeometry x="835" y="940" width="360" height="60" as="geometry" />
        </mxCell>
      </root>
    </mxGraphModel>
  </diagram>
</mxfile>
